PathFileType	4	(X/Y/Z)	Walk8.trc
DataRate	CameraRate	NumFrames	NumMarkers	Units	OrigDataRate	OrigDataStartFrame	OrigNumFrames
200.000000	200.000000	7	59	mm	200.000000	913	1039
Frame#	Times		RFA1		LFHD		RFHD		RCAR		RWRR		RACR1		LMT1		RUA1		LTH3		LTB1		LLFC		LACR1		LTB2		LToe		LASI		LTB3		LElbow		LUA1		RASI		RLFC		CLAV		STRN		RTH3		LWRU		LFA1		RBack		RMT5		RMT1		LCAR		RCAL		LTH4		RTB2		RToe		RLMAL		LTH1		LBHD		LPSI		RPSI		RTH1		RTB1		RTH2		RTB4		RTB3		LTB4		C7		RElbowM		RBHD		LMT5		RElbow		RMMAL		LWRR		RTH4		LTH2		LLMAL		LMMAL		T10		RWRU		LCAL		LElbowM
			X1	Y1	Z1	X2	Y2	Z2	X3	Y3	Z3	X4	Y4	Z4	X5	Y5	Z5	X6	Y6	Z6	X7	Y7	Z7	X8	Y8	Z8	X9	Y9	Z9	X10	Y10	Z10	X11	Y11	Z11	X12	Y12	Z12	X13	Y13	Z13	X14	Y14	Z14	X15	Y15	Z15	X16	Y16	Z16	X17	Y17	Z17	X18	Y18	Z18	X19	Y19	Z19	X20	Y20	Z20	X21	Y21	Z21	X22	Y22	Z22	X23	Y23	Z23	X24	Y24	Z24	X25	Y25	Z25	X26	Y26	Z26	X27	Y27	Z27	X28	Y28	Z28	X29	Y29	Z29	X30	Y30	Z30	X31	Y31	Z31	X32	Y32	Z32	X33	Y33	Z33	X34	Y34	Z34	X35	Y35	Z35	X36	Y36	Z36	X37	Y37	Z37	X38	Y38	Z38	X39	Y39	Z39	X40	Y40	Z40	X41	Y41	Z41	X42	Y42	Z42	X43	Y43	Z43	X44	Y44	Z44	X45	Y45	Z45	X46	Y46	Z46	X47	Y47	Z47	X48	Y48	Z48	X49	Y49	Z49	X50	Y50	Z50	X51	Y51	Z51	X52	Y52	Z52	X53	Y53	Z53	X54	Y54	Z54	X55	Y55	Z55	X56	Y56	Z56	X57	Y57	Z57	X58	Y58	Z58	X59	Y59	Z59

913	4.565	297.23	941.05	407.66	371.91	1561.7	40.153	382.78	1561.1	137.19	346.21	786.69	422.25	302.95	837.16	442.3	241.62	1363.3	267.55	545.7	89.458	-75.128	229.6	1216.8	354.94	314.96	568.12	-144.18	402.07	360.39	-46.52	316.49	499.38	-129.24	238.34	1371.6	-90.408	395.75	283.51	-119.8	578.24	105.7	-84.608	307.41	970.52	-109.64	426.28	192.66	-71.871	127.29	1100.7	-213.99	204.77	1231.5	-174.8	302.37	948.1	249.17	150.43	456.57	215.35	310.3	1335.9	89.539	370.71	1217	94.029	166.48	549	231.95	104.99	866.03	-295.74	153.97	973.63	-258.82	99.585	1306.9	196.64	177.61	26.382	193.89	188.12	35.357	101.21	135.01	813.8	-303.76	0.060557	32.578	142.34	292.71	651.02	-166.28	138.71	266.57	194.54	234.81	30.579	110.88	57.36	68.603	185.17	273.38	732.2	-185.35	217.69	1565.1	28.289	73.147	988.95	-36.525	57.24	986.27	96.361	214.47	708.29	272.32	183.24	339.92	131.37	240.93	622.72	234.74	148.66	260.39	133.4	126.09	178.28	134.31	410.35	276.3	-60.215	153.98	1415.4	106.64	168.16	1029.9	320.02	215.15	1578.3	164.14	517.68	70.388	-154.9	210.27	1054.1	398.64	75.329	75.888	99.629	159.99	850.62	-247.14	183.41	631.3	250.53	346.99	669.15	-146.54	397.47	88.373	-132.61	419.91	95.19	-51.488	91.622	1089.1	59.779	330.96	839.3	373.24	364.42	32.125	-83.571	124.28	1056.6	-114.62
914	4.57	302.2	941.15	407.3	376.46	1561.1	39.396	387.3	1560.5	136.44	351.51	786.91	422.07	308.17	837.31	442.11	245.86	1363.1	266.86	556.89	91.938	-73.488	234.46	1216.5	354.13	317.84	566.73	-144.55	408.23	361.15	-45.407	320.6	498.53	-128.88	242.5	1371.1	-91.066	403.98	284.28	-118.89	589.25	108.61	-82.663	312.2	969.82	-109.81	435.56	193.81	-70.944	130.32	1100.6	-214.39	208.31	1231.1	-175.45	306.18	947.67	248.98	153.08	456.3	215.11	314.64	1335.4	88.988	375.08	1216.6	94.06	169.48	548.71	231.68	106.07	866.11	-296.19	156.02	973.36	-259.39	103.88	1306.4	195.9	177.59	26.367	193.91	188.16	35.371	101.25	135.61	813.61	-304.3	0.14383	32.984	142.28	296.08	649.81	-166.6	140.12	266.39	194.48	234.88	30.544	110.94	57.558	68.864	185.12	277.19	731.1	-185.55	222.24	1564.6	27.504	77.721	988.51	-37.424	61.459	985.93	95.41	217.81	707.9	272.02	185.29	339.37	131.31	244.13	622.24	234.56	150.15	260.07	133.35	126.98	178.12	134.32	418.12	277.19	-59.205	158.3	1414.9	105.94	172.73	1029.7	319.83	219.7	1577.8	163.34	529.66	72.31	-153.44	215.06	1054.1	398.27	75.529	76.072	99.521	161.15	850.28	-247.81	186.85	631.14	250.48	350.31	667.68	-146.41	408.94	89.033	-132.09	430.65	96.288	-50.747	95.978	1088.6	58.975	336.12	839.42	373.02	376.27	32.326	-83.294	127.42	1056.4	-114.93
915	4.575	307.13	941.24	406.89	380.99	1560.4	38.601	391.81	1559.8	135.66	356.76	787.11	421.84	313.33	837.45	441.87	250.08	1362.8	266.13	567.45	94.184	-71.783	239.27	1216.2	353.29	320.9	565.39	-144.94	414.3	361.83	-44.285	324.95	497.73	-128.55	246.69	1370.5	-91.759	412	284.99	-117.93	599.67	111.22	-80.665	317.04	969.1	-109.98	444.45	194.88	-69.941	133.38	1100.4	-214.8	211.86	1230.7	-176.12	310.03	947.23	248.74	155.76	456.03	214.85	318.99	1334.9	88.399	379.46	1216.2	94.034	172.5	548.42	231.4	107.24	866.16	-296.63	158.13	973.06	-259.96	108.18	1305.9	195.1	177.57	26.353	193.92	188.21	35.386	101.28	136.32	813.41	-304.84	0.22709	33.419	142.21	299.59	648.63	-166.95	141.56	266.21	194.4	234.94	30.509	111	57.761	69.139	185.06	281.09	730.03	-185.8	226.77	1564.1	26.677	82.304	988.06	-38.332	65.696	985.59	94.449	221.2	707.51	271.7	187.36	338.82	131.23	247.36	621.75	234.35	151.65	259.75	133.29	127.88	177.96	134.32	425.66	277.99	-58.15	162.64	1414.4	105.21	177.24	1029.5	319.61	224.23	1577.4	162.51	540.99	74.052	-151.9	219.82	1054	397.87	75.738	76.274	99.417	162.39	849.93	-248.46	190.3	630.96	250.37	353.73	666.28	-146.26	419.83	89.684	-131.47	440.84	97.331	-49.912	100.35	1088.1	58.15	341.22	839.54	372.74	387.47	32.576	-82.902	130.57	1056.2	-115.26
916	4.58	312.01	941.32	406.43	385.51	1559.8	37.769	396.3	1559.2	134.83	361.96	787.31	421.57	318.44	837.58	441.58	254.29	1362.5	265.37	577.37	96.165	-70.016	244.02	1215.9	352.45	324.17	564.13	-145.34	420.3	362.39	-43.159	329.54	496.98	-128.23	250.9	1370	-92.489	419.8	285.6	-116.93	609.48	113.51	-78.621	321.93	968.34	-110.17	452.92	195.82	-68.865	136.48	1100.2	-215.23	215.43	1230.3	-176.82	313.93	946.77	248.43	158.47	455.75	214.59	323.34	1334.4	87.768	383.85	1215.7	93.944	175.56	548.12	231.1	108.51	866.18	-297.07	160.31	972.72	-260.53	112.47	1305.4	194.26	177.54	26.341	193.94	188.25	35.402	101.31	137.15	813.2	-305.37	0.30966	33.882	142.14	303.26	647.51	-167.33	143.01	266.03	194.33	235	30.476	111.05	57.966	69.428	185.01	285.09	728.98	-186.12	231.29	1563.6	25.809	86.892	987.61	-39.25	69.95	985.24	93.48	224.63	707.12	271.34	189.43	338.26	131.14	250.62	621.24	234.13	153.16	259.42	133.22	128.79	177.8	134.32	432.95	278.69	-57.054	166.97	1413.9	104.42	181.71	1029.3	319.37	228.73	1576.9	161.64	551.67	75.58	-150.28	224.55	1053.9	397.43	75.954	76.496	99.319	163.71	849.54	-249.09	193.76	630.76	250.19	357.27	664.99	-146.09	430.11	90.286	-130.75	450.43	98.283	-48.981	104.73	1087.5	57.308	346.27	839.64	372.41	397.99	32.835	-82.393	133.74	1056	-115.61
917	4.585	316.85	941.38	405.92	390.01	1559.1	36.9	400.78	1558.6	133.97	367.09	787.5	421.24	323.5	837.69	441.25	258.49	1362.2	264.57	586.64	97.853	-68.194	248.72	1215.6	351.59	327.71	562.96	-145.71	426.23	362.83	-42.029	334.42	496.29	-127.91	255.14	1369.4	-93.258	427.36	286.1	-115.88	618.66	115.45	-76.536	326.86	967.57	-110.37	460.96	196.6	-67.722	139.63	1099.9	-215.69	219.03	1229.8	-177.53	317.86	946.29	248.06	161.21	455.48	214.32	327.7	1334	87.096	388.25	1215.3	93.786	178.65	547.82	230.79	109.88	866.15	-297.5	162.55	972.35	-261.1	116.76	1304.8	193.37	177.51	26.331	193.94	188.29	35.418	101.34	138.1	812.97	-305.9	0.39144	34.375	142.07	307.11	646.45	-167.72	144.48	265.86	194.25	235.04	30.444	111.09	58.174	69.731	184.97	289.18	727.97	-186.49	235.79	1563	24.898	91.486	987.15	-40.177	74.22	984.87	92.506	228.11	706.72	270.96	191.52	337.7	131.03	253.92	620.73	233.88	154.69	259.09	133.14	129.7	177.65	134.33	439.99	279.26	-55.923	171.31	1413.3	103.59	186.14	1029.1	319.1	233.22	1576.4	160.73	561.66	76.865	-148.59	229.24	1053.8	396.96	76.179	76.739	99.231	165.12	849.13	-249.71	197.24	630.53	249.96	360.95	663.83	-145.9	439.77	90.807	-129.92	459.43	99.11	-47.957	109.13	1086.9	56.45	351.26	839.73	372.03	407.8	33.069	-81.767	136.94	1055.7	-115.97
918	4.59	321.63	941.42	405.37	394.5	1558.5	35.994	405.23	1557.9	133.07	372.17	787.68	420.87	328.5	837.79	440.88	262.7	1361.8	263.75	595.24	99.225	-66.322	253.36	1215.4	350.73	331.57	561.91	-146.04	432.08	363.14	-40.902	339.59	495.68	-127.6	259.41	1368.7	-94.067	434.68	286.47	-114.81	627.22	117.02	-74.413	331.84	966.77	-110.57	468.58	197.22	-66.516	142.81	1099.6	-216.17	222.67	1229.3	-178.25	321.84	945.8	247.63	163.97	455.19	214.05	332.08	1333.5	86.38	392.65	1214.8	93.553	181.78	547.51	230.47	111.36	866.09	-297.94	164.87	971.95	-261.68	121.05	1304.3	192.44	177.48	26.325	193.95	188.33	35.435	101.37	139.16	812.71	-306.43	0.47281	34.899	142	311.17	645.45	-168.11	145.97	265.69	194.16	235.09	30.413	111.13	58.384	70.05	184.92	293.39	726.98	-186.91	240.28	1562.5	23.947	96.082	986.68	-41.115	78.508	984.5	91.526	231.64	706.31	270.55	193.62	337.15	130.91	257.25	620.21	233.61	156.23	258.76	133.06	130.62	177.5	134.34	446.78	279.67	-54.762	175.66	1412.8	102.72	190.51	1028.9	318.8	237.68	1575.9	159.77	570.97	77.88	-146.82	233.88	1053.7	396.46	76.412	77.005	99.153	166.61	848.69	-250.31	200.73	630.28	249.66	364.8	662.81	-145.69	448.78	91.216	-129	467.81	99.784	-46.842	113.55	1086.3	55.578	356.19	839.81	371.61	416.9	33.247	-81.024	140.17	1055.4	-116.35
919	4.595	326.35	941.46	404.78	398.97	1557.8	35.053	409.68	1557.3	132.14	377.18	787.84	420.45	333.43	837.88	440.45	266.9	1361.5	262.89	603.18	100.27	-64.405	257.93	1215.1	349.87	335.8	560.98	-146.28	437.85	363.3	-39.78	345.07	495.13	-127.28	263.7	1368.1	-94.916	441.73	286.68	-113.7	635.16	118.2	-72.257	336.86	965.95	-110.78	475.77	197.64	-65.253	146.03	1099.3	-216.67	226.33	1228.8	-179	325.86	945.28	247.14	166.78	454.91	213.77	336.46	1332.9	85.62	397.07	1214.3	93.244	184.95	547.2	230.14	112.93	865.99	-298.37	167.25	971.52	-262.25	125.34	1303.7	191.46	177.44	26.322	193.95	188.37	35.453	101.4	140.35	812.44	-306.95	0.55436	35.455	141.94	315.46	644.53	-168.48	147.48	265.52	194.07	235.12	30.385	111.17	58.596	70.387	184.89	297.7	726.02	-187.37	244.76	1561.9	22.955	100.68	986.2	-42.065	82.815	984.11	90.543	235.23	705.89	270.12	195.74	336.59	130.79	260.63	619.68	233.31	157.79	258.42	132.96	131.54	177.36	134.35	453.3	279.93	-53.575	180.01	1412.2	101.79	194.84	1028.7	318.47	242.13	1575.3	158.78	579.59	78.607	-144.98	238.49	1053.6	395.93	76.653	77.295	99.087	168.21	848.22	-250.91	204.25	630	249.31	368.84	661.97	-145.45	457.15	91.487	-127.98	475.58	100.28	-45.639	117.98	1085.7	54.694	361.06	839.88	371.14	425.28	33.344	-80.167	143.45	1055.1	-116.74
